<svg xmlns="http://www.w3.org/2000/svg" xmlns:svg="http://www.w3.org/2000/svg" xmlns:xlink="http://www.w3.org/1999/xlink" id="svg2943" width="300" height="159" version="1.1" viewBox="0 0 300 160"><defs id="defs2945"><linearGradient id="linearGradient3798" x1="150" x2="299" y1="84" y2="84" gradientUnits="userSpaceOnUse"><stop id="stop3800" offset="0" stop-color="#dddce9" stop-opacity="1"/><stop id="stop3802" offset=".37" stop-color="#5664a3" stop-opacity="1"/><stop id="stop3804" offset="1" stop-color="#000" stop-opacity="1"/></linearGradient><radialGradient id="radialGradient3870" cx="77.914" cy="-48.545" r="146" fx="77.914" fy="-48.545" gradientTransform="matrix(1.5089497,0,0,1.3582164,-39.028917,76.957747)" gradientUnits="userSpaceOnUse" xlink:href="#linearGradient3798"/></defs><ellipse id="ellipse3860" cx="150" cy="80" fill="#6c7eb7" stroke="url(#radialGradient3870)" stroke-width="5.5" rx="146" ry="76"/><path id="p" fill-rule="evenodd" stroke="#fff" stroke-linejoin="round" stroke-width="2" d="m 45,125 16,-81 37,0 c 16,1 24,9 24,23 0,24 -19,38 -36,37 l -18,0 -4,21 -19,0 z m 27,-36 5,-30 13,0 c 7,0 12,3 12,9 -1,17 -9,20 -18,21 l -12,0 z"/><path id="h" stroke="#fff" stroke-linejoin="round" stroke-width="2" d="m 116,104 16,-81 19,0 -4,21 18,0 c 16,1 22,9 20,19 l -7,41 -20,0 7,-37 c 1,-5 1,-8 -6,-8 l -15,0 -9,45 -19,0 z"/><use id="p2" transform="translate(134,0)" xlink:href="#p"/></svg>